<svg width="908" height="561" viewBox="0 0 908 561" fill="none" xmlns="http://www.w3.org/2000/svg">
<g clip-path="url(#clip0_265_45)">
<path d="M908 230.408H906.467V189.114C906.467 185.975 905.838 182.867 904.616 179.968C903.394 177.068 901.603 174.433 899.345 172.214C897.087 169.995 894.407 168.234 891.457 167.033C888.507 165.832 885.346 165.214 882.153 165.214H793.15C789.957 165.214 786.796 165.832 783.846 167.033C780.896 168.234 778.216 169.995 775.958 172.214C773.7 174.433 771.909 177.068 770.687 179.968C769.465 182.867 768.836 185.975 768.836 189.114V415.658C768.836 418.797 769.465 421.904 770.687 424.804C771.909 427.704 773.7 430.339 775.958 432.558C778.216 434.777 780.896 436.538 783.846 437.739C786.796 438.94 789.957 439.558 793.15 439.558H882.153C885.346 439.558 888.507 438.94 891.457 437.739C894.407 436.538 897.087 434.777 899.345 432.558C901.603 430.339 903.394 427.704 904.616 424.804C905.838 421.904 906.467 418.797 906.467 415.658V259.802H908V230.408Z" fill="#3F3D56"/>
<path d="M901.293 190.518V416.733C901.293 421.467 899.379 426.007 895.974 429.355C892.568 432.703 887.949 434.583 883.133 434.584H793.703C791.318 434.583 788.957 434.121 786.755 433.224C784.552 432.327 782.551 431.012 780.865 429.354C779.179 427.696 777.842 425.729 776.931 423.563C776.019 421.397 775.55 419.076 775.551 416.733V190.518C775.551 185.786 777.463 181.248 780.867 177.901C784.271 174.555 788.888 172.675 793.703 172.675H804.552C804.02 173.963 803.817 175.359 803.963 176.741C804.108 178.124 804.596 179.45 805.385 180.603C806.174 181.757 807.239 182.702 808.486 183.356C809.733 184.01 811.125 184.353 812.539 184.354H863.529C864.944 184.357 866.338 184.017 867.588 183.364C868.838 182.711 869.905 181.765 870.694 180.611C871.484 179.456 871.972 178.128 872.115 176.744C872.258 175.36 872.052 173.963 871.516 172.675H883.133C887.948 172.675 892.566 174.555 895.971 177.901C899.377 181.247 901.291 185.785 901.293 190.518Z" fill="#D0CDE1"/>
<path d="M884.362 288.491H780.402V316.067H884.362V288.491Z" fill="#F9A826"/>
<path d="M888.487 311.201H787.828C787.172 311.2 786.542 310.943 786.078 310.487C785.614 310.031 785.353 309.412 785.353 308.767V284.436C785.353 283.791 785.614 283.173 786.078 282.717C786.542 282.26 787.172 282.004 787.828 282.003H888.487C889.144 282.004 889.773 282.26 890.237 282.717C890.701 283.173 890.962 283.791 890.963 284.436V308.767C890.962 309.412 890.701 310.031 890.237 310.487C889.773 310.943 889.144 311.2 888.487 311.201ZM787.828 283.625C787.609 283.625 787.399 283.711 787.245 283.863C787.09 284.015 787.003 284.221 787.003 284.436V308.767C787.003 308.982 787.09 309.189 787.245 309.341C787.399 309.493 787.609 309.578 787.828 309.578H888.487C888.706 309.578 888.916 309.493 889.071 309.341C889.225 309.189 889.312 308.982 889.312 308.767V284.436C889.312 284.221 889.225 284.015 889.071 283.863C888.916 283.711 888.706 283.625 888.487 283.625H787.828Z" fill="#3F3D56"/>
<path d="M805.154 303.901H791.953V305.523H805.154V303.901Z" fill="#3F3D56"/>
<path d="M823.306 303.901H810.105V305.523H823.306V303.901Z" fill="#3F3D56"/>
<path d="M841.458 303.901H828.257V305.523H841.458V303.901Z" fill="#3F3D56"/>
<path d="M859.61 303.901H846.408V305.523H859.61V303.901Z" fill="#3F3D56"/>
<path d="M877.761 303.901H864.56V305.523H877.761V303.901Z" fill="#3F3D56"/>
<path opacity="0.1" d="M901.293 393.732V416.733C901.293 421.467 899.379 426.007 895.974 429.355C892.568 432.703 887.949 434.583 883.133 434.584H793.703C791.318 434.583 788.957 434.121 786.755 433.224C784.552 432.327 782.551 431.012 780.865 429.354C779.179 427.696 777.842 425.729 776.931 423.563C776.019 421.397 775.55 419.077 775.551 416.733V310.925L901.293 393.732Z" fill="black"/>
<path d="M472.648 372.839H82.3853V561H472.648V372.839Z" fill="#D0CDE1"/>
<path opacity="0.1" d="M373.432 561H84.0354C83.5982 560.999 83.1792 560.827 82.87 560.524C82.5608 560.22 82.3865 559.808 82.3853 559.378V374.461C82.3865 374.032 82.5608 373.62 82.87 373.316C83.1792 373.012 83.5982 372.841 84.0354 372.839H87.6988L373.432 561Z" fill="black"/>
<path d="M867.86 397.981H263.078V399.604H867.86V397.981Z" fill="#3F3D56"/>
<path d="M454.283 3.50186H281.437V0H203.062V3.50186H29.5042C27.9688 3.50186 26.4485 3.79913 25.03 4.37669C23.6115 4.95426 22.3226 5.8008 21.2369 6.868C20.1512 7.9352 19.29 9.20215 18.7025 10.5965C18.1149 11.9909 17.8125 13.4853 17.8125 14.9946V247.645C17.8125 250.693 19.0443 253.617 21.2369 255.772C23.4295 257.927 26.4034 259.138 29.5042 259.138H454.283C457.384 259.138 460.357 257.927 462.55 255.772C464.743 253.617 465.974 250.693 465.974 247.645V14.9946C465.974 13.4853 465.672 11.9909 465.085 10.5965C464.497 9.20215 463.636 7.9352 462.55 6.868C461.464 5.8008 460.175 4.95426 458.757 4.37669C457.338 3.79913 455.818 3.50186 454.283 3.50186V3.50186Z" fill="#3F3D56"/>
<path d="M450.296 23.8094H33.491V254.939H450.296V23.8094Z" fill="#D0CDE1"/>
<path d="M241.537 17.5093C243.898 17.5093 245.812 15.6279 245.812 13.3071C245.812 10.9863 243.898 9.10486 241.537 9.10486C239.176 9.10486 237.262 10.9863 237.262 13.3071C237.262 15.6279 239.176 17.5093 241.537 17.5093Z" fill="#F9A826"/>
<path d="M157.467 110.063H147.567C146.91 110.063 146.281 109.806 145.817 109.35C145.353 108.894 145.092 108.275 145.091 107.63V97.8977C145.092 97.2526 145.353 96.6342 145.817 96.178C146.281 95.7219 146.91 95.4653 147.567 95.4646H157.467C158.124 95.4653 158.753 95.7219 159.217 96.178C159.681 96.6342 159.942 97.2526 159.943 97.8977V107.63C159.942 108.275 159.681 108.894 159.217 109.35C158.753 109.806 158.124 110.063 157.467 110.063V110.063ZM147.567 97.0867C147.348 97.087 147.138 97.1725 146.983 97.3245C146.829 97.4766 146.742 97.6827 146.741 97.8977V107.63C146.742 107.845 146.829 108.051 146.983 108.203C147.138 108.355 147.348 108.441 147.567 108.441H157.467C157.686 108.441 157.896 108.355 158.051 108.203C158.205 108.051 158.292 107.845 158.293 107.63V97.8977C158.292 97.6827 158.205 97.4766 158.051 97.3245C157.896 97.1725 157.686 97.087 157.467 97.0867H147.567Z" fill="#3F3D56"/>
<path d="M334.034 108.441H145.916V110.063H334.034V108.441Z" fill="#3F3D56"/>
<path d="M329.084 153.048H285.355V166.025H329.084V153.048Z" fill="#F9A826"/>
<path d="M332.384 162.781H291.955C291.299 162.78 290.67 162.524 290.206 162.067C289.742 161.611 289.481 160.993 289.48 160.348V150.615C289.481 149.97 289.742 149.352 290.206 148.896C290.67 148.439 291.299 148.183 291.955 148.182H332.384C333.04 148.183 333.67 148.439 334.134 148.896C334.598 149.352 334.859 149.97 334.859 150.615V160.348C334.859 160.993 334.598 161.611 334.134 162.067C333.67 162.524 333.04 162.78 332.384 162.781V162.781ZM291.955 149.804C291.736 149.804 291.527 149.89 291.372 150.042C291.217 150.194 291.13 150.4 291.13 150.615V160.348C291.13 160.563 291.217 160.769 291.372 160.921C291.527 161.073 291.736 161.158 291.955 161.159H332.384C332.603 161.158 332.813 161.073 332.967 160.921C333.122 160.769 333.209 160.563 333.209 160.348V150.615C333.209 150.4 333.122 150.194 332.967 150.042C332.813 149.89 332.603 149.804 332.384 149.804H291.955Z" fill="#3F3D56"/>
<path d="M663.241 167.647H580.733V224.42H663.241V167.647Z" fill="#F9A826"/>
<path d="M671.492 219.959H592.284C591.409 219.958 590.57 219.616 589.952 219.008C589.333 218.399 588.985 217.575 588.984 216.715V163.186C588.985 162.326 589.333 161.502 589.952 160.893C590.57 160.285 591.409 159.943 592.284 159.942H671.492C672.367 159.943 673.206 160.285 673.824 160.893C674.443 161.502 674.791 162.326 674.792 163.186V216.715C674.791 217.575 674.443 218.399 673.824 219.008C673.206 219.616 672.367 219.958 671.492 219.959V219.959ZM592.284 163.186V216.715H671.494L671.492 163.186H592.284Z" fill="#3F3D56"/>
<path d="M662.416 161.159H659.115C659.115 154.06 656.247 147.253 651.141 142.234C646.034 137.214 639.109 134.395 631.888 134.395C624.667 134.395 617.741 137.214 612.635 142.234C607.529 147.253 604.66 154.06 604.66 161.159H601.36C601.36 153.2 604.576 145.567 610.301 139.94C616.026 134.312 623.791 131.15 631.888 131.15C639.984 131.15 647.749 134.312 653.474 139.94C659.199 145.567 662.416 153.2 662.416 161.159V161.159Z" fill="#3F3D56"/>
<path d="M640.139 183.462C640.14 182.05 639.767 180.662 639.055 179.435C638.343 178.208 637.318 177.185 636.08 176.467C634.843 175.75 633.436 175.362 632 175.343C630.563 175.324 629.146 175.674 627.889 176.358C626.633 177.043 625.579 178.038 624.834 179.245C624.089 180.452 623.677 181.83 623.64 183.242C623.602 184.654 623.941 186.051 624.621 187.295C625.302 188.539 626.301 189.586 627.52 190.334V199.039C627.52 199.603 627.633 200.161 627.852 200.682C628.072 201.203 628.394 201.676 628.799 202.075C629.205 202.474 629.686 202.79 630.216 203.006C630.746 203.221 631.314 203.333 631.888 203.333V203.333C633.046 203.333 634.157 202.88 634.977 202.075C635.796 201.27 636.256 200.178 636.256 199.039V190.334C637.444 189.607 638.423 188.594 639.102 187.392C639.782 186.19 640.138 184.837 640.139 183.462V183.462Z" fill="#3F3D56"/>
<path d="M247.814 456.376H234.612V457.998H247.814V456.376Z" fill="#3F3D56"/>
<path d="M265.965 456.376H252.764V457.998H265.965V456.376Z" fill="#3F3D56"/>
<path d="M284.117 456.376H270.916V457.998H284.117V456.376Z" fill="#3F3D56"/>
<path d="M302.269 456.376H289.067V457.998H302.269V456.376Z" fill="#3F3D56"/>
<path d="M320.421 456.376H307.219V457.998H320.421V456.376Z" fill="#3F3D56"/>
<path d="M489.974 547.212H103.012C102.137 547.211 101.298 546.869 100.68 546.261C100.061 545.653 99.7128 544.828 99.7119 543.968V359.052C99.7128 358.192 100.061 357.367 100.68 356.759C101.298 356.151 102.137 355.809 103.012 355.808H489.974C490.849 355.808 491.688 356.151 492.307 356.759C492.925 357.367 493.273 358.192 493.274 359.052V543.968C493.273 544.828 492.925 545.653 492.307 546.261C491.688 546.869 490.849 547.212 489.974 547.212V547.212ZM103.012 359.052V543.968H489.976L489.974 359.052H103.012Z" fill="#3F3D56"/>
<path d="M120.339 386.627C123.073 386.627 125.289 384.448 125.289 381.761C125.289 379.073 123.073 376.895 120.339 376.895C117.605 376.895 115.388 379.073 115.388 381.761C115.388 384.448 117.605 386.627 120.339 386.627Z" fill="#3F3D56"/>
<path d="M137.666 386.627C140.4 386.627 142.616 384.448 142.616 381.761C142.616 379.073 140.4 376.895 137.666 376.895C134.931 376.895 132.715 379.073 132.715 381.761C132.715 384.448 134.931 386.627 137.666 386.627Z" fill="#3F3D56"/>
<path d="M154.992 386.627C157.726 386.627 159.943 384.448 159.943 381.761C159.943 379.073 157.726 376.895 154.992 376.895C152.258 376.895 150.042 379.073 150.042 381.761C150.042 384.448 152.258 386.627 154.992 386.627Z" fill="#3F3D56"/>
<path d="M333.209 467.731H221.824C221.167 467.73 220.538 467.473 220.074 467.017C219.61 466.561 219.349 465.943 219.348 465.297V437.722C219.349 437.077 219.61 436.459 220.074 436.002C220.538 435.546 221.167 435.29 221.824 435.289H333.209C333.866 435.29 334.495 435.546 334.959 436.002C335.423 436.459 335.684 437.077 335.685 437.722V465.297C335.684 465.943 335.423 466.561 334.959 467.017C334.495 467.473 333.866 467.73 333.209 467.731V467.731ZM221.824 436.911C221.605 436.911 221.395 436.997 221.24 437.149C221.086 437.301 220.999 437.507 220.999 437.722V465.297C220.999 465.512 221.086 465.719 221.24 465.871C221.395 466.023 221.605 466.108 221.824 466.108H333.209C333.428 466.108 333.638 466.023 333.792 465.871C333.947 465.719 334.034 465.512 334.034 465.297V437.722C334.034 437.507 333.947 437.301 333.792 437.149C333.638 436.997 333.428 436.911 333.209 436.911H221.824Z" fill="#3F3D56"/>
<path d="M361.262 468.542C369.464 468.542 376.113 462.006 376.113 453.943C376.113 445.881 369.464 439.344 361.262 439.344C353.06 439.344 346.41 445.881 346.41 453.943C346.41 462.006 353.06 468.542 361.262 468.542Z" fill="#F9A826"/>
<path d="M366.212 466.92C363.112 466.92 360.081 466.016 357.503 464.322C354.925 462.629 352.916 460.223 351.729 457.407C350.543 454.591 350.232 451.493 350.837 448.503C351.442 445.514 352.935 442.769 355.127 440.614C357.32 438.458 360.113 436.991 363.154 436.396C366.195 435.802 369.347 436.107 372.212 437.273C375.076 438.439 377.524 440.414 379.247 442.949C380.969 445.483 381.889 448.462 381.889 451.51C381.884 455.595 380.231 459.512 377.292 462.401C374.353 465.29 370.369 466.915 366.212 466.92V466.92ZM366.212 437.722C363.438 437.722 360.726 438.531 358.42 440.046C356.113 441.561 354.315 443.714 353.254 446.233C352.192 448.753 351.914 451.525 352.456 454.2C352.997 456.874 354.333 459.331 356.294 461.259C358.256 463.187 360.755 464.5 363.476 465.032C366.197 465.564 369.017 465.291 371.58 464.248C374.143 463.204 376.334 461.437 377.875 459.17C379.416 456.902 380.239 454.237 380.239 451.51C380.235 447.854 378.756 444.35 376.126 441.765C373.496 439.18 369.931 437.726 366.212 437.722V437.722Z" fill="#3F3D56"/>
<path d="M366.432 457.265L358.445 449.413L360.778 447.119L365.992 452.243L380.54 431.922L383.238 433.79L366.432 457.265Z" fill="#3F3D56"/>
<path opacity="0.1" d="M357.887 254.939H33.4907V41.3199L357.887 254.939Z" fill="black"/>
<path d="M477.678 250.734H436.999V247.853C436.999 247.778 436.984 247.703 436.955 247.634C436.926 247.565 436.883 247.502 436.829 247.449C436.775 247.396 436.711 247.354 436.641 247.325C436.57 247.296 436.495 247.281 436.418 247.281H422.472C422.395 247.281 422.32 247.296 422.249 247.325C422.179 247.354 422.115 247.396 422.061 247.449C422.007 247.502 421.964 247.565 421.935 247.634C421.905 247.703 421.89 247.778 421.89 247.853V250.734H413.174V247.853C413.174 247.778 413.159 247.703 413.129 247.634C413.1 247.565 413.057 247.502 413.003 247.449C412.95 247.396 412.886 247.354 412.815 247.325C412.744 247.296 412.669 247.281 412.593 247.281H398.646C398.569 247.281 398.494 247.296 398.423 247.325C398.353 247.354 398.289 247.396 398.235 247.449C398.181 247.502 398.138 247.565 398.109 247.634C398.08 247.703 398.065 247.778 398.065 247.853V250.734H389.348V247.853C389.348 247.778 389.333 247.703 389.304 247.634C389.275 247.565 389.232 247.502 389.178 247.449C389.124 247.396 389.06 247.354 388.989 247.325C388.919 247.296 388.843 247.281 388.767 247.281H374.82C374.744 247.281 374.668 247.296 374.598 247.325C374.527 247.354 374.463 247.396 374.409 247.449C374.355 247.502 374.312 247.565 374.283 247.634C374.254 247.703 374.239 247.778 374.239 247.853V250.734H365.522V247.853C365.522 247.778 365.507 247.703 365.478 247.634C365.449 247.565 365.406 247.502 365.352 247.449C365.298 247.396 365.234 247.354 365.163 247.325C365.093 247.296 365.017 247.281 364.941 247.281H350.994C350.918 247.281 350.842 247.296 350.772 247.325C350.701 247.354 350.637 247.396 350.583 247.449C350.529 247.502 350.487 247.565 350.457 247.634C350.428 247.703 350.413 247.778 350.413 247.853V250.734H341.696V247.853C341.696 247.778 341.681 247.703 341.652 247.634C341.623 247.565 341.58 247.502 341.526 247.449C341.472 247.396 341.408 247.354 341.338 247.325C341.267 247.296 341.192 247.281 341.115 247.281H327.169C327.092 247.281 327.017 247.296 326.946 247.325C326.876 247.354 326.812 247.396 326.758 247.449C326.704 247.502 326.661 247.565 326.632 247.634C326.602 247.703 326.587 247.778 326.587 247.853V250.734H317.871V247.853C317.871 247.778 317.856 247.703 317.826 247.634C317.797 247.565 317.754 247.502 317.7 247.449C317.646 247.396 317.582 247.354 317.512 247.325C317.441 247.296 317.366 247.281 317.29 247.281H303.343C303.266 247.281 303.191 247.296 303.12 247.325C303.05 247.354 302.986 247.396 302.932 247.449C302.878 247.502 302.835 247.565 302.806 247.634C302.777 247.703 302.762 247.778 302.762 247.853V250.734H294.045V247.853C294.045 247.778 294.03 247.703 294.001 247.634C293.971 247.565 293.929 247.502 293.875 247.449C293.821 247.396 293.757 247.354 293.686 247.325C293.616 247.296 293.54 247.281 293.464 247.281H184.214C184.138 247.281 184.062 247.296 183.991 247.325C183.921 247.354 183.857 247.396 183.803 247.449C183.749 247.502 183.706 247.565 183.677 247.634C183.648 247.703 183.633 247.778 183.633 247.853V250.734H174.916V247.853C174.916 247.778 174.901 247.703 174.872 247.634C174.843 247.565 174.8 247.502 174.746 247.449C174.692 247.396 174.628 247.354 174.557 247.325C174.487 247.296 174.411 247.281 174.335 247.281H160.388C160.312 247.281 160.236 247.296 160.166 247.325C160.095 247.354 160.031 247.396 159.977 247.449C159.923 247.502 159.88 247.565 159.851 247.634C159.822 247.703 159.807 247.778 159.807 247.853V250.734H151.09V247.853C151.09 247.778 151.075 247.703 151.046 247.634C151.017 247.565 150.974 247.502 150.92 247.449C150.866 247.396 150.802 247.354 150.732 247.325C150.661 247.296 150.585 247.281 150.509 247.281H136.562C136.486 247.281 136.41 247.296 136.34 247.325C136.269 247.354 136.205 247.396 136.151 247.449C136.097 247.502 136.055 247.565 136.025 247.634C135.996 247.703 135.981 247.778 135.981 247.853V250.734H127.264V247.853C127.264 247.778 127.249 247.703 127.22 247.634C127.191 247.565 127.148 247.502 127.094 247.449C127.04 247.396 126.976 247.354 126.906 247.325C126.835 247.296 126.76 247.281 126.683 247.281H112.737C112.66 247.281 112.585 247.296 112.514 247.325C112.444 247.354 112.38 247.396 112.326 247.449C112.272 247.502 112.229 247.565 112.2 247.634C112.171 247.703 112.155 247.778 112.155 247.853V250.734H103.439V247.853C103.439 247.778 103.424 247.703 103.394 247.634C103.365 247.565 103.322 247.502 103.269 247.449C103.215 247.396 103.15 247.354 103.08 247.325C103.009 247.296 102.934 247.281 102.858 247.281H88.9108C88.8345 247.281 88.7589 247.296 88.6884 247.325C88.6179 247.354 88.5538 247.396 88.4999 247.449C88.4459 247.502 88.4031 247.565 88.3739 247.634C88.3447 247.703 88.3297 247.778 88.3297 247.853V250.734H79.613V247.853C79.613 247.778 79.5979 247.703 79.5687 247.634C79.5395 247.565 79.4967 247.502 79.4428 247.449C79.3888 247.396 79.3247 247.354 79.2542 247.325C79.1837 247.296 79.1082 247.281 79.0318 247.281H65.085C65.0087 247.281 64.9332 247.296 64.8626 247.325C64.7921 247.354 64.7281 247.396 64.6741 247.449C64.6202 247.502 64.5773 247.565 64.5481 247.634C64.5189 247.703 64.5039 247.778 64.5039 247.853V250.734H55.7872V247.853C55.7872 247.778 55.7721 247.703 55.7429 247.634C55.7137 247.565 55.6709 247.502 55.617 247.449C55.563 247.396 55.4989 247.354 55.4284 247.325C55.3579 247.296 55.2824 247.281 55.206 247.281H41.2593C41.1829 247.281 41.1074 247.296 41.0369 247.325C40.9664 247.354 40.9023 247.396 40.8483 247.449C40.7944 247.502 40.7516 247.565 40.7224 247.634C40.6932 247.703 40.6781 247.778 40.6781 247.853V250.734H13.9468C12.1153 250.734 10.3017 251.088 8.60958 251.777C6.91748 252.466 5.38 253.476 4.08492 254.749C2.78984 256.022 1.76252 257.533 1.06163 259.197C0.360742 260.86 -1.08351e-06 262.643 0 264.443V270.642C8.75297e-06 274.278 1.4694 277.765 4.08493 280.336C6.70046 282.907 10.2479 284.352 13.9468 284.352H477.678C479.509 284.352 481.323 283.997 483.015 283.308C484.707 282.619 486.244 281.609 487.539 280.336C488.835 279.063 489.862 277.552 490.563 275.889C491.264 274.225 491.624 272.443 491.624 270.642V264.443C491.624 262.643 491.264 260.86 490.563 259.197C489.862 257.533 488.835 256.022 487.539 254.749C486.244 253.476 484.707 252.466 483.015 251.777C481.323 251.088 479.509 250.734 477.678 250.734V250.734Z" fill="#3F3D56"/>
<path d="M350.536 176.568H132.715C132.059 176.568 131.43 176.311 130.966 175.855C130.501 175.399 130.24 174.78 130.24 174.135V84.9211C130.24 84.2761 130.501 83.6576 130.966 83.2015C131.43 82.7453 132.059 82.4887 132.715 82.488H350.536C351.192 82.4887 351.821 82.7453 352.285 83.2015C352.749 83.6576 353.01 84.2761 353.011 84.9211V174.135C353.01 174.78 352.749 175.399 352.285 175.855C351.821 176.311 351.192 176.568 350.536 176.568V176.568ZM132.715 84.1101C132.496 84.1104 132.287 84.1959 132.132 84.348C131.977 84.5 131.89 84.7061 131.89 84.9211V174.135C131.89 174.35 131.977 174.556 132.132 174.708C132.287 174.86 132.496 174.946 132.715 174.946H350.536C350.755 174.946 350.964 174.86 351.119 174.708C351.274 174.556 351.361 174.35 351.361 174.135V84.9211C351.361 84.7061 351.274 84.5 351.119 84.348C350.964 84.1959 350.755 84.1104 350.536 84.1101H132.715Z" fill="#3F3D56"/>
<path d="M157.467 134.394H147.567C146.91 134.394 146.281 134.137 145.817 133.681C145.353 133.225 145.092 132.606 145.091 131.961V122.229C145.092 121.584 145.353 120.965 145.817 120.509C146.281 120.053 146.91 119.796 147.567 119.796H157.467C158.124 119.796 158.753 120.053 159.217 120.509C159.681 120.965 159.942 121.584 159.943 122.229V131.961C159.942 132.606 159.681 133.225 159.217 133.681C158.753 134.137 158.124 134.394 157.467 134.394V134.394ZM147.567 121.418C147.348 121.418 147.138 121.504 146.983 121.656C146.829 121.808 146.742 122.014 146.741 122.229V131.961C146.742 132.176 146.829 132.382 146.983 132.534C147.138 132.686 147.348 132.772 147.567 132.772H157.467C157.686 132.772 157.896 132.686 158.051 132.534C158.205 132.382 158.292 132.176 158.293 131.961V122.229C158.292 122.014 158.205 121.808 158.051 121.656C157.896 121.504 157.686 121.418 157.467 121.418H147.567Z" fill="#3F3D56"/>
<path d="M334.034 132.772H145.916V134.394H334.034V132.772Z" fill="#3F3D56"/>
<path d="M823.306 218.742H218.523V220.364H823.306V218.742Z" fill="#3F3D56"/>
<path d="M218.523 230.097C224.903 230.097 230.074 225.013 230.074 218.742C230.074 212.471 224.903 207.388 218.523 207.388C212.144 207.388 206.972 212.471 206.972 218.742C206.972 225.013 212.144 230.097 218.523 230.097Z" fill="#3F3D56"/>
<path d="M823.306 229.286C828.319 229.286 832.382 225.291 832.382 220.364C832.382 215.437 828.319 211.443 823.306 211.443C818.294 211.443 814.23 215.437 814.23 220.364C814.23 225.291 818.294 229.286 823.306 229.286Z" fill="#3F3D56"/>
<path d="M867.861 408.525C872.873 408.525 876.936 404.531 876.936 399.604C876.936 394.676 872.873 390.682 867.861 390.682C862.848 390.682 858.785 394.676 858.785 399.604C858.785 404.531 862.848 408.525 867.861 408.525Z" fill="#3F3D56"/>
<path d="M265.553 408.525C270.565 408.525 274.629 404.531 274.629 399.604C274.629 394.676 270.565 390.682 265.553 390.682C260.54 390.682 256.477 394.676 256.477 399.604C256.477 404.531 260.54 408.525 265.553 408.525Z" fill="#3F3D56"/>
</g>
<defs>
<clipPath id="clip0_265_45">
<rect width="908" height="561" fill="white"/>
</clipPath>
</defs>
</svg>
